<svg version="1.1" id="Capa_1" xmlns="http://www.w3.org/2000/svg" xmlns:xlink="http://www.w3.org/1999/xlink" x="0px" y="0px"
	 viewBox="0 0 99 99" style="enable-background:new 0 0 99 99;" xml:space="preserve">
<style type="text/css">
	.st0{fill:#88C057;}
	.st1{fill:#999999;}
</style>
<g id="Path">
	<g>
		<path class="st0" d="M56.5,28.7C51.4,25.7,45.4,24,39,24c-6.6,0-12.8,1.8-18.1,5H9v14.9h14.9V33c4.4-2.6,9.6-4,15-4
			c6.6,0,12.6,2.1,17.5,5.7C56.5,34.6,56.5,28.7,56.5,28.7z M19.1,39.1h-5.3v-5.3h5.3V39.1z M69.3,41.4h-6c3.6,4.9,5.7,11,5.7,17.5
			c0,5.5-1.5,10.6-4,15H54V89h14.9V77.1c3.2-5.3,5-11.5,5-18.1C74,52.6,72.3,46.6,69.3,41.4z M64,84h-5v-5h5V84z"/>
	</g>
</g>
<g id="Anchor_1_">
	<g>
		<path class="st1" d="M84,49c-0.5,0-0.9,0.1-1.4,0.2L71.4,38V26.5H60L48.8,15.3c0.1-0.4,0.2-0.9,0.2-1.4c0-2.8-2.2-5-5-5
			s-5,2.2-5,5s2.2,5,5,5c0.4,0,0.9-0.1,1.3-0.2l11.3,11.3v11.4h11.4l11.3,11.3C79.1,53.1,79,53.6,79,54c0,2.8,2.2,5,5,5
			c2.8,0,5-2.2,5-5C89,51.2,86.8,49,84,49z"/>
	</g>
</g>
</svg>
